<svg width="1440" height="664" viewBox="0 0 1440 664" fill="none" xmlns="http://www.w3.org/2000/svg">
<g clip-path="url(#clip0)">
<path fill-rule="evenodd" clip-rule="evenodd" d="M189.76 41.148C211.048 41.148 228.868 57.0972 233.43 78.4785C239.353 75.3739 246.008 73.6328 253.042 73.6328C270.724 73.6328 286.013 84.636 293.3 100.616C295.63 99.8896 298.094 99.5003 300.644 99.5003C313.603 99.5003 324.375 109.561 326.56 122.809H52.9601C55.1449 109.561 65.9169 99.5003 78.8764 99.5003C82.8893 99.5003 86.6924 100.465 90.0957 102.19C96.8133 84.7218 112.829 72.4296 131.518 72.4296C136.911 72.4296 142.081 73.4531 146.869 75.329C152.433 55.5501 169.531 41.148 189.76 41.148Z" fill="#CECCFF"/>
<path fill-rule="evenodd" clip-rule="evenodd" d="M40.9572 29C60.6653 29 78.2637 39.5488 89.838 56.0753C96.0121 50.8533 103.605 47.7744 111.813 47.7744C128.308 47.7744 142.317 60.2075 147.341 77.4866C150.806 76.2521 154.484 75.5882 158.296 75.5882C179.013 75.5882 195.808 95.2012 195.808 119.395C195.808 120.544 195.77 121.682 195.696 122.809L-68 122.808C-67.6538 102.037 -53.1272 85.3231 -35.2577 85.3231C-30.1787 85.3231 -25.3697 86.6733 -21.0796 89.0833C-15.6093 54.8839 10.0855 29 40.9572 29Z" fill="#E8E7FF"/>
<path fill-rule="evenodd" clip-rule="evenodd" d="M1150.69 169.198C1169.33 169.198 1184.94 181.131 1188.93 197.128C1194.12 194.805 1199.95 193.502 1206.11 193.502C1221.59 193.502 1234.98 201.735 1241.36 213.69C1243.4 213.147 1245.56 212.856 1247.79 212.856C1259.15 212.856 1268.59 220.397 1270.5 230.322H1030.88C1032.78 220.397 1042.22 212.856 1053.58 212.856C1057.1 212.856 1060.43 213.577 1063.41 214.868C1069.29 201.799 1083.32 192.602 1099.68 192.602C1104.41 192.602 1108.93 193.368 1113.13 194.771C1118 179.973 1132.97 169.198 1150.69 169.198Z" fill="#CECCFF"/>
<path fill-rule="evenodd" clip-rule="evenodd" d="M1239.34 134.6C1262.88 134.6 1283.9 145.383 1297.72 162.276C1305.1 156.938 1314.17 153.791 1323.97 153.791C1343.67 153.791 1360.4 166.5 1366.4 184.162C1370.54 182.9 1374.93 182.222 1379.49 182.222C1404.23 182.222 1424.29 202.27 1424.29 227.001C1424.29 228.118 1424.25 229.225 1424.17 230.322L1109.22 230.321C1109.72 209.167 1127.03 192.173 1148.32 192.173C1154.38 192.173 1160.13 193.553 1165.25 196.016C1171.78 161.058 1202.47 134.6 1239.34 134.6Z" fill="#E8E7FF"/>
<path fill-rule="evenodd" clip-rule="evenodd" d="M1081.69 87.8917C1087.01 87.8917 1092 90.284 1095.8 94.4845L1095.97 94.6738L1094.28 95.9647C1090.86 92.0948 1086.41 89.9238 1081.69 89.9238C1078.48 89.9238 1075.39 90.9257 1072.64 92.8135L1072.44 92.9568L1071.78 93.4244L1071.12 92.9569C1068.32 90.9764 1065.15 89.9238 1061.86 89.9238C1057.22 89.9238 1052.83 92.0264 1049.43 95.7815L1049.27 95.9645L1047.58 94.6736C1051.4 90.3559 1056.46 87.8917 1061.86 87.8917C1065.3 87.8917 1068.62 88.8924 1071.58 90.766L1071.78 90.8911L1071.97 90.766C1074.86 88.9381 1078.09 87.941 1081.44 87.8935L1081.69 87.8917Z" fill="#A39FFF"/>
<path fill-rule="evenodd" clip-rule="evenodd" d="M1252.19 87.8917C1257.51 87.8917 1262.5 90.284 1266.29 94.4845L1266.46 94.6738L1264.78 95.9647C1261.36 92.0948 1256.9 89.9238 1252.19 89.9238C1248.98 89.9238 1245.89 90.9257 1243.14 92.8135L1242.93 92.9568L1242.27 93.4244L1241.61 92.9569C1238.81 90.9764 1235.64 89.9238 1232.36 89.9238C1227.72 89.9238 1223.33 92.0264 1219.93 95.7815L1219.77 95.9645L1218.08 94.6736C1221.9 90.3559 1226.95 87.8917 1232.36 87.8917C1235.8 87.8917 1239.12 88.8924 1242.08 90.766L1242.27 90.8911L1242.47 90.766C1245.35 88.9381 1248.58 87.941 1251.94 87.8935L1252.19 87.8917Z" fill="#A39FFF"/>
<path fill-rule="evenodd" clip-rule="evenodd" d="M1232.6 64.2494C1237.93 64.2494 1242.91 66.6418 1246.71 70.8422L1246.88 71.0315L1245.19 72.3224C1241.77 68.4525 1237.32 66.2816 1232.6 66.2816C1229.4 66.2816 1226.3 67.2834 1223.55 69.1713L1223.35 69.3145L1222.69 69.7821L1222.03 69.3146C1219.23 67.3341 1216.06 66.2816 1212.77 66.2816C1208.13 66.2816 1203.74 68.3841 1200.35 72.1392L1200.18 72.3222L1198.5 71.0313C1202.31 66.7136 1207.37 64.2494 1212.77 64.2494C1216.22 64.2494 1219.53 65.2501 1222.49 67.1237L1222.69 67.2488L1222.88 67.1238C1225.77 65.2958 1229 64.2988 1232.35 64.2512L1232.6 64.2494Z" fill="#A39FFF"/>
<path fill-rule="evenodd" clip-rule="evenodd" d="M1207.84 40.6071C1213.16 40.6071 1218.15 42.9995 1221.94 47.1999L1222.11 47.3892L1220.43 48.6801C1217.01 44.8103 1212.55 42.6393 1207.84 42.6393C1204.63 42.6393 1201.53 43.6411 1198.79 45.529L1198.58 45.6722L1197.92 46.1399L1197.26 45.6723C1194.46 43.6919 1191.29 42.6393 1188 42.6393C1183.37 42.6393 1178.98 44.7418 1175.58 48.497L1175.41 48.6799L1173.73 47.389C1177.54 43.0714 1182.6 40.6071 1188 40.6071C1191.45 40.6071 1194.77 41.6078 1197.73 43.4814L1197.92 43.6066L1198.12 43.4815C1201 41.6536 1204.23 40.6565 1207.58 40.6089L1207.84 40.6071Z" fill="#A39FFF"/>
<path fill-rule="evenodd" clip-rule="evenodd" d="M1105.88 64.2494C1111.21 64.2494 1116.19 66.6418 1119.99 70.8422L1120.16 71.0315L1118.47 72.3224C1115.05 68.4525 1110.6 66.2816 1105.88 66.2816C1102.68 66.2816 1099.58 67.2834 1096.83 69.1713L1096.63 69.3145L1095.97 69.7821L1095.31 69.3146C1092.51 67.3341 1089.34 66.2816 1086.05 66.2816C1081.41 66.2816 1077.02 68.3841 1073.63 72.1392L1073.46 72.3222L1071.78 71.0313C1075.59 66.7136 1080.65 64.2494 1086.05 64.2494C1089.5 64.2494 1092.81 65.2501 1095.77 67.1237L1095.97 67.2488L1096.16 67.1238C1099.05 65.2958 1102.28 64.2988 1105.63 64.2512L1105.88 64.2494Z" fill="#A39FFF"/>
<path fill-rule="evenodd" clip-rule="evenodd" d="M1135.26 40.6071C1140.58 40.6071 1145.57 42.9995 1149.37 47.1999L1149.54 47.3892L1147.85 48.6801C1144.43 44.8103 1139.97 42.6393 1135.26 42.6393C1132.05 42.6393 1128.96 43.6411 1126.21 45.529L1126.01 45.6722L1125.34 46.1399L1124.68 45.6723C1121.88 43.6919 1118.72 42.6393 1115.43 42.6393C1110.79 42.6393 1106.4 44.7418 1103 48.497L1102.84 48.6799L1101.15 47.389C1104.97 43.0714 1110.03 40.6071 1115.43 40.6071C1118.87 40.6071 1122.19 41.6078 1125.15 43.4814L1125.34 43.6066L1125.54 43.4815C1128.43 41.6536 1131.65 40.6565 1135.01 40.6089L1135.26 40.6071Z" fill="#A39FFF"/>
<path fill-rule="evenodd" clip-rule="evenodd" d="M1164.06 16.9649C1169.38 16.9649 1174.37 19.3572 1178.17 23.5576L1178.34 23.7469L1176.65 25.0378C1173.23 21.168 1168.77 18.997 1164.06 18.997C1160.85 18.997 1157.76 19.9989 1155.01 21.8867L1154.81 22.0299L1154.14 22.4976L1153.48 22.03C1150.68 20.0496 1147.52 18.997 1144.23 18.997C1139.59 18.997 1135.2 21.0995 1131.8 24.8547L1131.64 25.0377L1129.95 23.7467C1133.77 19.4291 1138.83 16.9649 1144.23 16.9649C1147.67 16.9649 1150.99 17.9655 1153.95 19.8391L1154.14 19.9643L1154.34 19.8392C1157.23 18.0113 1160.45 17.0142 1163.81 16.9666L1164.06 16.9649Z" fill="#A39FFF"/>
<path fill-rule="evenodd" clip-rule="evenodd" d="M782.744 172.482C803.299 172.482 820.506 185.627 824.91 203.249C830.629 200.69 837.055 199.255 843.847 199.255C860.92 199.255 875.683 208.324 882.719 221.494C884.968 220.896 887.348 220.575 889.81 220.575C902.385 220.575 912.828 228.95 914.864 239.949H650.624C652.66 228.95 663.103 220.575 675.679 220.575C679.553 220.575 683.225 221.37 686.512 222.792C692.998 208.394 708.462 198.263 726.508 198.263C731.714 198.263 736.706 199.107 741.33 200.653C746.702 184.352 763.211 172.482 782.744 172.482Z" fill="#E8E7FF"/>
<path fill-rule="evenodd" clip-rule="evenodd" d="M207.488 275.3C224.921 275.3 239.514 286.445 243.25 301.385C248.1 299.216 253.55 297.999 259.31 297.999C273.79 297.999 286.311 305.688 292.278 316.854C294.186 316.347 296.204 316.074 298.292 316.074C308.914 316.074 317.742 323.118 319.52 332.387H95.4561C97.2339 323.118 106.062 316.074 116.684 316.074C119.97 316.074 123.085 316.749 125.872 317.954C131.373 305.748 144.489 297.159 159.793 297.159C164.209 297.159 168.443 297.874 172.364 299.185C176.921 285.364 190.922 275.3 207.488 275.3Z" fill="#E8E7FF"/>
<path fill-rule="evenodd" clip-rule="evenodd" d="M477.68 155.759C456.467 155.759 437.524 165.539 425.065 180.86C418.419 176.019 410.247 173.164 401.411 173.164C383.656 173.164 368.578 184.691 363.169 200.71C359.44 199.565 355.48 198.95 351.378 198.95C329.078 198.95 311 217.133 311 239.562C311 240.272 311.018 240.978 311.054 241.679L594.926 241.679C594.018 222.911 578.602 207.975 559.718 207.975C554.251 207.975 549.075 209.227 544.457 211.461C538.569 179.756 510.911 155.759 477.68 155.759Z" fill="#E8E7FF"/>
<path fill-rule="evenodd" clip-rule="evenodd" d="M681.735 135C655.444 135 631.967 147.132 616.527 166.138C608.29 160.132 598.162 156.591 587.212 156.591C565.207 156.591 546.519 170.89 539.816 190.762C535.195 189.342 530.287 188.579 525.202 188.579C497.565 188.579 475.16 211.135 475.16 238.959C475.16 239.871 475.184 240.778 475.232 241.679L827.048 241.679C825.971 218.353 806.845 199.774 783.408 199.774C776.633 199.774 770.218 201.327 764.495 204.098C757.197 164.768 722.919 135 681.735 135Z" fill="#CECCFF"/>
<path fill-rule="evenodd" clip-rule="evenodd" d="M931.225 361.699C942.582 361.699 952.089 368.933 954.523 378.631C957.683 377.223 961.233 376.433 964.986 376.433C974.419 376.433 982.576 381.424 986.464 388.673C987.707 388.343 989.022 388.167 990.382 388.167C997.296 388.167 1003.04 392.73 1004.21 398.739H858.242C859.407 392.73 865.154 388.167 872.068 388.167C874.209 388.167 876.238 388.604 878.054 389.387C881.638 381.463 890.182 375.888 900.153 375.888C903.03 375.888 905.788 376.352 908.343 377.203C911.311 368.231 920.432 361.699 931.225 361.699Z" fill="#E8E7FF"/>
<path fill-rule="evenodd" clip-rule="evenodd" d="M852.104 356C862.613 356 871.998 360.806 878.17 368.335C881.463 365.956 885.512 364.554 889.889 364.554C898.685 364.554 906.156 370.218 908.835 378.091C910.683 377.528 912.644 377.226 914.677 377.226C925.725 377.226 934.681 386.161 934.681 397.184C934.681 397.708 934.661 398.226 934.621 398.74L794 398.739C794.185 389.276 801.931 381.661 811.46 381.661C814.169 381.661 816.733 382.276 819.021 383.374C821.938 367.793 835.64 356 852.104 356Z" fill="#CECCFF"/>
<path fill-rule="evenodd" clip-rule="evenodd" d="M145.525 382.738L297.792 618.008H0L53.8991 496.182L90.915 471.025L145.525 382.738Z" fill="#CECCFF"/>
<path fill-rule="evenodd" clip-rule="evenodd" d="M145.439 382.738L156.206 385.398L177.053 431.182V431.412L166.623 446.815L156.194 431.412L145.269 446.815L134.343 431.412L123.914 446.815L113.581 431.554L145.439 382.738Z" fill="#E8E7FF"/>
<path fill-rule="evenodd" clip-rule="evenodd" d="M272.193 330.84L457.92 618.007H67.392L101.429 540.175L150.838 505.263L171.024 457.774L207.709 430.543L272.193 330.84Z" fill="#A39FFF"/>
<path fill-rule="evenodd" clip-rule="evenodd" d="M271.955 330.84L311.055 391.116L298.237 410.158L285.401 391.091L271.955 410.158L258.508 391.091L245.672 410.158L232.854 391.116L255.73 334.681L271.955 330.84Z" fill="#E8E7FF"/>
<path fill-rule="evenodd" clip-rule="evenodd" d="M393.371 451.935L465.569 549.574L510.519 574.247L527.616 618.008H247.68L274.758 581.388L307.714 567.776L393.371 451.935Z" fill="#7364FF"/>
<path fill-rule="evenodd" clip-rule="evenodd" d="M393.099 451.935L437.96 511.874L437.96 512.284L423.155 531.382L408.35 512.284L392.84 531.382L377.33 512.284L362.525 531.382L347.827 512.423L393.099 451.935Z" fill="#CECCFF"/>
<path fill-rule="evenodd" clip-rule="evenodd" d="M1121.47 277.213L1372.03 616.278H870.912L1121.47 277.213Z" fill="#CECCFF"/>
<path fill-rule="evenodd" clip-rule="evenodd" d="M1122.14 277.213L1147.51 284.602L1197.06 378.369L1197.06 379.061L1172.33 411.291L1147.61 379.061L1121.7 411.291L1095.8 379.061L1071.07 411.291L1046.53 379.296L1122.14 277.213Z" fill="#E8E7FF"/>
<path fill-rule="evenodd" clip-rule="evenodd" d="M1262.88 378.297L1354.59 502.552L1404.4 519.717L1440 618.277H1085.76L1262.88 378.297Z" fill="#A39FFF"/>
<path fill-rule="evenodd" clip-rule="evenodd" d="M1261.89 376.297L1277.9 372.059L1326.21 462.931L1326.21 463.524L1304.98 491.127L1283.75 463.524L1261.52 491.127L1239.28 463.524L1218.05 491.127L1196.98 463.724L1261.89 376.297Z" fill="#E8E7FF"/>
<path fill-rule="evenodd" clip-rule="evenodd" d="M960.48 391.964L1126.08 616.277H794.88L830.243 535.344L871.774 512.121L960.48 391.964Z" fill="#A39FFF"/>
<path fill-rule="evenodd" clip-rule="evenodd" d="M960.114 391.964L1020.61 473.177L1020.61 473.733L1000.65 499.609L980.68 473.733L959.764 499.609L938.848 473.733L918.883 499.609L899.063 473.921L960.114 391.964Z" fill="#CECCFF"/>
<path d="M1440 618.007H0V712H1440V618.007Z" fill="#CECCFF"/>
<path d="M1440 618.007H0V622.621H1440V618.007Z" fill="#A39FFF"/>
<path d="M97.9201 562.65H95.6161V618.008H97.9201V562.65Z" fill="#02A837"/>
<path fill-rule="evenodd" clip-rule="evenodd" d="M96.1921 559.19L123.84 605.898H68.5441L96.1921 559.19Z" fill="#02A837"/>
<path fill-rule="evenodd" clip-rule="evenodd" d="M96.768 547.081L119.808 585.716H73.728L96.768 547.081Z" fill="#02A837"/>
<path fill-rule="evenodd" clip-rule="evenodd" d="M96.1921 538.431L112.32 565.533H80.0641L96.1921 538.431Z" fill="#02A837"/>
<path d="M215.901 558.83H106.996V619.161H215.901V558.83Z" fill="#E8E7FF"/>
<path d="M265.048 558.83H215.901V619.161H265.048V558.83Z" fill="#CECCFF"/>
<path fill-rule="evenodd" clip-rule="evenodd" d="M215.901 599.05H265.048L268.957 619.161H215.901V599.05Z" fill="#5628D2"/>
<path fill-rule="evenodd" clip-rule="evenodd" d="M106.996 599.05H215.901L218.693 619.161H104.203L106.996 599.05Z" fill="#7364FF"/>
<path d="M172.339 572.237H150.558V619.161H172.339V572.237Z" fill="#FFE38E"/>
<path d="M141.064 562.74H110.905V596.816H141.064V562.74Z" fill="#FFE38E"/>
<path d="M153.909 572.237H150.558V619.161H153.909V572.237Z" fill="#5628D2"/>
<path d="M211.991 562.74H181.833V596.816H211.991V562.74Z" fill="#FFE38E"/>
<path d="M258.904 562.74H222.044V596.816H258.904V562.74Z" fill="#FFC30D"/>
<path fill-rule="evenodd" clip-rule="evenodd" d="M155.026 558.83H177.924V575.03H138.83C138.83 566.083 146.081 558.83 155.026 558.83Z" fill="#7364FF"/>
<path fill-rule="evenodd" clip-rule="evenodd" d="M177.924 558.83V575.03H163.961V572.795C163.961 565.082 170.212 558.83 177.924 558.83Z" fill="#5628D2"/>
<path d="M141.901 578.381C143.598 578.381 144.973 576.881 144.973 575.03C144.973 573.178 143.598 571.678 141.901 571.678C140.205 571.678 138.83 573.178 138.83 575.03C138.83 576.881 140.205 578.381 141.901 578.381Z" fill="#7364FF"/>
<path d="M148.324 578.381C150.175 578.381 151.675 576.881 151.675 575.03C151.675 573.178 150.175 571.678 148.324 571.678C146.473 571.678 144.973 573.178 144.973 575.03C144.973 576.881 146.473 578.381 148.324 578.381Z" fill="#7364FF"/>
<path d="M167.592 578.381C169.596 578.381 171.222 576.881 171.222 575.03C171.222 573.178 169.596 571.678 167.592 571.678C165.587 571.678 163.961 573.178 163.961 575.03C163.961 576.881 165.587 578.381 167.592 578.381Z" fill="#5628D2"/>
<path d="M155.026 578.381C156.876 578.381 158.377 576.881 158.377 575.03C158.377 573.178 156.876 571.678 155.026 571.678C153.175 571.678 151.675 573.178 151.675 575.03C151.675 576.881 153.175 578.381 155.026 578.381Z" fill="#7364FF"/>
<path d="M174.573 578.381C176.423 578.381 177.924 576.881 177.924 575.03C177.924 573.178 176.423 571.678 174.573 571.678C172.722 571.678 171.222 573.178 171.222 575.03C171.222 576.881 172.722 578.381 174.573 578.381Z" fill="#5628D2"/>
<path d="M160.89 578.381C162.586 578.381 163.962 576.881 163.962 575.03C163.962 573.178 162.586 571.678 160.89 571.678C159.193 571.678 157.818 573.178 157.818 575.03C157.818 576.881 159.193 578.381 160.89 578.381Z" fill="#7364FF"/>
<path d="M241.87 581.174C245.417 581.174 248.293 578.423 248.293 575.03C248.293 571.636 245.417 568.885 241.87 568.885C238.323 568.885 235.448 571.636 235.448 575.03C235.448 578.423 238.323 581.174 241.87 581.174Z" fill="#7364FF"/>
<path d="M247.734 575.588H236.006C234.464 575.588 233.214 576.839 233.214 578.381C233.214 579.924 234.464 581.174 236.006 581.174H247.734C249.277 581.174 250.527 579.924 250.527 578.381C250.527 576.839 249.277 575.588 247.734 575.588Z" fill="#7364FF"/>
<path fill-rule="evenodd" clip-rule="evenodd" d="M235.448 581.174H248.293L246.617 587.319H237.123L235.448 581.174Z" fill="#A39FFF"/>
<path fill-rule="evenodd" clip-rule="evenodd" d="M118.166 529.781H204.731L215.901 558.83H106.996L118.166 529.781Z" fill="#7364FF"/>
<path fill-rule="evenodd" clip-rule="evenodd" d="M204.731 529.781H253.878L265.048 558.83H215.901L204.731 529.781Z" fill="#5628D2"/>
<path fill-rule="evenodd" clip-rule="evenodd" d="M270.144 604.168C281.596 604.168 290.88 599.755 290.88 584.469C290.88 569.182 281.596 548.811 270.144 548.811C258.692 548.811 249.408 569.182 249.408 584.469C249.408 599.755 258.692 604.168 270.144 604.168Z" fill="#0CC647"/>
<path d="M271.872 571.876H269.568V618.007H271.872V571.876Z" fill="#02A837"/>
<path d="M76.032 547.657H72.576V618.007H76.032V547.657Z" fill="#02A837"/>
<path fill-rule="evenodd" clip-rule="evenodd" d="M73.728 546.504L108.864 605.321H38.592L73.728 546.504Z" fill="#0CC647"/>
<path fill-rule="evenodd" clip-rule="evenodd" d="M74.3041 531.511L103.104 579.949H45.5041L74.3041 531.511Z" fill="#0CC647"/>
<path fill-rule="evenodd" clip-rule="evenodd" d="M73.7281 520.555L93.8881 555.154H53.5681L73.7281 520.555Z" fill="#0CC647"/>
<path d="M227.232 615.124C230.572 615.124 233.28 612.414 233.28 609.07C233.28 605.726 230.572 603.015 227.232 603.015C223.892 603.015 221.184 605.726 221.184 609.07C221.184 612.414 223.892 615.124 227.232 615.124Z" fill="#02A837"/>
<path fill-rule="evenodd" clip-rule="evenodd" d="M231.552 618.008C231.552 613.709 228.05 610.511 223.756 610.511C219.461 610.511 216 613.709 216 618.008" fill="#02A837"/>
<path fill-rule="evenodd" clip-rule="evenodd" d="M238.553 603.591C240.346 603.591 242.034 604.052 243.509 604.864C244.55 604.389 245.704 604.125 246.918 604.125C250.465 604.125 253.496 606.377 254.713 609.556C255.068 609.492 255.433 609.459 255.806 609.459C259.271 609.459 262.08 612.324 262.08 615.859C262.08 616.613 261.952 617.336 261.718 618.008L228.76 618.008C228.331 616.842 228.096 615.579 228.096 614.259C228.096 608.368 232.778 603.591 238.553 603.591Z" fill="#00D745"/>
<path d="M275.904 615.701C280.358 615.701 283.968 612.087 283.968 607.628C283.968 603.169 280.358 599.555 275.904 599.555C271.45 599.555 267.84 603.169 267.84 607.628C267.84 612.087 271.45 615.701 275.904 615.701Z" fill="#00D745"/>
<path fill-rule="evenodd" clip-rule="evenodd" d="M260.928 596.672C264.572 596.672 267.557 599.494 267.821 603.075C268.703 602.666 269.685 602.438 270.72 602.438C274.537 602.438 277.632 605.536 277.632 609.358C277.632 609.686 277.609 610.008 277.565 610.324C278.596 609.71 279.801 609.358 281.088 609.358C284.905 609.358 288 612.456 288 616.278C288 616.875 287.924 617.455 287.782 618.008L243.999 618.008C243.405 616.788 243.072 615.419 243.072 613.971C243.072 608.875 247.198 604.745 252.288 604.745C252.924 604.745 253.546 604.809 254.146 604.932C254.061 604.499 254.016 604.05 254.016 603.591C254.016 599.77 257.111 596.672 260.928 596.672Z" fill="#02A837"/>
<path fill-rule="evenodd" clip-rule="evenodd" d="M110.88 618.007C118.674 618.007 124.992 617.694 124.992 608.618C124.992 599.541 118.674 585.139 110.88 585.139C103.086 585.139 96.7681 599.541 96.7681 608.618C96.7681 617.694 103.086 618.007 110.88 618.007Z" fill="#00D745"/>
<path d="M681.408 455.395H285.12V619.161H681.408V455.395Z" fill="#CECCFF"/>
<path d="M741.312 457.701H681.408V619.161H741.312V457.701Z" fill="#7364FF"/>
<path fill-rule="evenodd" clip-rule="evenodd" d="M697.536 469.234C702.626 469.234 706.752 473.365 706.752 478.46V496.913H688.32V478.46C688.32 473.365 692.446 469.234 697.536 469.234Z" fill="#5628D2"/>
<path fill-rule="evenodd" clip-rule="evenodd" d="M697.536 518.825C702.626 518.825 706.752 522.956 706.752 528.051V546.504H688.32V528.051C688.32 522.956 692.446 518.825 697.536 518.825Z" fill="#5628D2"/>
<path fill-rule="evenodd" clip-rule="evenodd" d="M725.184 469.234C730.274 469.234 734.4 473.365 734.4 478.46V496.913H715.968V478.46C715.968 473.365 720.094 469.234 725.184 469.234Z" fill="#5628D2"/>
<path fill-rule="evenodd" clip-rule="evenodd" d="M725.184 518.825C730.274 518.825 734.4 522.956 734.4 528.051V546.504H715.968V528.051C715.968 522.956 720.094 518.825 725.184 518.825Z" fill="#5628D2"/>
<path d="M745.92 455.395H681.408V460.008H745.92V455.395Z" fill="#7364FF"/>
<path fill-rule="evenodd" clip-rule="evenodd" d="M305.856 469.234C310.946 469.234 315.072 473.365 315.072 478.46V496.913H296.64V478.46C296.64 473.365 300.766 469.234 305.856 469.234Z" fill="#7364FF"/>
<path fill-rule="evenodd" clip-rule="evenodd" d="M305.856 518.825C310.946 518.825 315.072 522.956 315.072 528.051V546.504H296.64V528.051C296.64 522.956 300.766 518.825 305.856 518.825Z" fill="#7364FF"/>
<path fill-rule="evenodd" clip-rule="evenodd" d="M401.472 469.234C406.562 469.234 410.688 473.365 410.688 478.46V496.913H392.256V478.46C392.256 473.365 396.382 469.234 401.472 469.234Z" fill="#7364FF"/>
<path fill-rule="evenodd" clip-rule="evenodd" d="M401.472 518.825C406.562 518.825 410.688 522.956 410.688 528.051V546.504H392.256V528.051C392.256 522.956 396.382 518.825 401.472 518.825Z" fill="#7364FF"/>
<path d="M726.912 563.803H695.808V600.708H726.912V563.803Z" fill="#FFC30D"/>
<path fill-rule="evenodd" clip-rule="evenodd" d="M563.904 469.234C568.994 469.234 573.12 473.365 573.12 478.46V496.913H554.688V478.46C554.688 473.365 558.814 469.234 563.904 469.234Z" fill="#7364FF"/>
<path fill-rule="evenodd" clip-rule="evenodd" d="M563.904 518.825C568.994 518.825 573.12 522.956 573.12 528.051V546.504H554.688V528.051C554.688 522.956 558.814 518.825 563.904 518.825Z" fill="#7364FF"/>
<path fill-rule="evenodd" clip-rule="evenodd" d="M658.368 469.234C663.458 469.234 667.584 473.365 667.584 478.46V496.913H649.152V478.46C649.152 473.365 653.278 469.234 658.368 469.234Z" fill="#7364FF"/>
<path fill-rule="evenodd" clip-rule="evenodd" d="M658.368 518.825C663.458 518.825 667.584 522.956 667.584 528.051V546.504H649.152V528.051C649.152 522.956 653.278 518.825 658.368 518.825Z" fill="#7364FF"/>
<path fill-rule="evenodd" clip-rule="evenodd" d="M305.856 574.183C310.946 574.183 315.072 578.313 315.072 583.409V601.862H296.64V583.409C296.64 578.313 300.766 574.183 305.856 574.183Z" fill="#FFC30D"/>
<path fill-rule="evenodd" clip-rule="evenodd" d="M350.208 574.183C358.479 574.183 365.184 580.895 365.184 589.175V619.161H335.232V589.175C335.232 580.895 341.937 574.183 350.208 574.183Z" fill="#7364FF"/>
<path fill-rule="evenodd" clip-rule="evenodd" d="M401.472 574.183C406.562 574.183 410.688 578.313 410.688 583.409V601.862H392.256V583.409C392.256 578.313 396.382 574.183 401.472 574.183Z" fill="#7364FF"/>
<path fill-rule="evenodd" clip-rule="evenodd" d="M563.904 574.183C568.994 574.183 573.12 578.313 573.12 583.409V601.862H554.688V583.409C554.688 578.313 558.814 574.183 563.904 574.183Z" fill="#FFC30D"/>
<path fill-rule="evenodd" clip-rule="evenodd" d="M604.224 574.183C612.495 574.183 619.2 580.895 619.2 589.175V619.161H589.248V589.175C589.248 580.895 595.953 574.183 604.224 574.183Z" fill="#7364FF"/>
<path fill-rule="evenodd" clip-rule="evenodd" d="M658.368 574.183C663.458 574.183 667.584 578.313 667.584 583.409V601.862H649.152V583.409C649.152 578.313 653.278 574.183 658.368 574.183Z" fill="#7364FF"/>
<path d="M384.192 446.745H326.592V455.395H384.192V446.745Z" fill="#7364FF"/>
<path d="M642.24 446.745H584.64V455.395H642.24V446.745Z" fill="#7364FF"/>
<path d="M533.952 459.431H426.816V619.737H533.952V459.431Z" fill="#E8E7FF"/>
<path d="M686.016 496.913H285.12V501.526H686.016V496.913Z" fill="#A39FFF"/>
<path d="M392.832 442.132H331.2V446.745H392.832V442.132Z" fill="#7364FF"/>
<path d="M649.152 442.132H587.52V446.745H649.152V442.132Z" fill="#7364FF"/>
<path d="M380.16 442.132H318.528V446.745H380.16V442.132Z" fill="#A39FFF"/>
<path d="M638.208 442.132H576.576V446.745H638.208V442.132Z" fill="#A39FFF"/>
<path d="M686.016 546.504H285.12V551.117H686.016V546.504Z" fill="#A39FFF"/>
<path d="M536.256 455.395H425.664V459.431H536.256V455.395Z" fill="#A39FFF"/>
<path d="M540.864 459.431H527.04V619.161H540.864V459.431Z" fill="#A39FFF"/>
<path d="M540.864 455.395H536.256V619.161H540.864V455.395Z" fill="#7364FF"/>
<path d="M540.864 541.891H531.648V555.73H540.864V541.891Z" fill="#7364FF"/>
<path fill-rule="evenodd" clip-rule="evenodd" d="M483.264 563.803C494.716 563.803 504 573.097 504 584.562V619.161H462.528V584.562C462.528 573.097 471.812 563.803 483.264 563.803Z" fill="#7364FF"/>
<path d="M439.488 459.431H425.664V619.161H439.488V459.431Z" fill="#A39FFF"/>
<path d="M439.488 459.431H434.88V619.161H439.488V459.431Z" fill="#7364FF"/>
<path d="M531.648 541.891H421.056V555.73H531.648V541.891Z" fill="#CECCFF"/>
<path d="M485.568 363.997C485.568 362.564 484.408 361.402 482.976 361.402C481.544 361.402 480.384 362.564 480.384 363.997V450.493C480.384 451.926 481.544 453.088 482.976 453.088C484.408 453.088 485.568 451.926 485.568 450.493V363.997Z" fill="#A39FFF"/>
<path d="M377.28 446.745H332.352V619.737H377.28V446.745Z" fill="#A39FFF"/>
<path d="M635.328 446.745H590.4V619.737H635.328V446.745Z" fill="#A39FFF"/>
<path d="M377.28 446.745H331.2V619.737H377.28V446.745Z" fill="#7364FF"/>
<path d="M635.328 446.745H589.248V619.737H635.328V446.745Z" fill="#7364FF"/>
<path d="M686.016 455.395H285.12V460.008H686.016V455.395Z" fill="#A39FFF"/>
<path d="M372.672 446.745H326.592V619.737H372.672V446.745Z" fill="#E8E7FF"/>
<path d="M630.72 446.745H584.64V619.737H630.72V446.745Z" fill="#E8E7FF"/>
<path fill-rule="evenodd" clip-rule="evenodd" d="M350.208 574.183C355.298 574.183 359.424 578.313 359.424 583.409V620.314H340.992V583.409C340.992 578.313 345.118 574.183 350.208 574.183Z" fill="#7364FF"/>
<path fill-rule="evenodd" clip-rule="evenodd" d="M367.569 406.957C376.75 406.957 384.192 417.456 384.192 430.407V442.132H350.946V430.407C350.946 425.977 346.108 410.491 347.621 406.957H367.569Z" fill="#7364FF"/>
<path fill-rule="evenodd" clip-rule="evenodd" d="M349.632 406.957C362.357 406.957 372.672 417.284 372.672 430.022V442.132H326.592V430.022C326.592 417.284 336.907 406.957 349.632 406.957Z" fill="#A39FFF"/>
<path fill-rule="evenodd" clip-rule="evenodd" d="M491.04 384.468C521.738 384.468 546.624 409.381 546.624 440.114V455.395H435.456V440.114C435.456 409.381 460.342 384.468 491.04 384.468Z" fill="#7364FF"/>
<path fill-rule="evenodd" clip-rule="evenodd" d="M607.104 574.183C612.194 574.183 616.32 578.313 616.32 583.409V620.314H597.888V583.409C597.888 578.313 602.014 574.183 607.104 574.183Z" fill="#7364FF"/>
<path fill-rule="evenodd" clip-rule="evenodd" d="M480.672 384.468C511.37 384.468 536.256 409.381 536.256 440.114V455.395H425.088V440.114C425.088 409.381 449.974 384.468 480.672 384.468Z" fill="#A39FFF"/>
<path fill-rule="evenodd" clip-rule="evenodd" d="M625.617 406.957C634.798 406.957 642.24 417.456 642.24 430.407V442.132H608.994V430.407C608.994 425.977 604.156 410.491 605.669 406.957H625.617Z" fill="#7364FF"/>
<path d="M550.08 441.555H531.648V455.395H550.08V441.555Z" fill="#7364FF"/>
<path fill-rule="evenodd" clip-rule="evenodd" d="M607.68 406.957C620.405 406.957 630.72 417.284 630.72 430.022V442.132H584.64V430.022C584.64 417.284 594.955 406.957 607.68 406.957Z" fill="#A39FFF"/>
<path d="M531.648 441.555H421.056V455.395H531.648V441.555Z" fill="#CECCFF"/>
<path fill-rule="evenodd" clip-rule="evenodd" d="M607.104 469.234C612.194 469.234 616.32 473.365 616.32 478.46V496.913H597.888V478.46C597.888 473.365 602.014 469.234 607.104 469.234Z" fill="#FFC30D"/>
<path fill-rule="evenodd" clip-rule="evenodd" d="M350.208 469.234C355.298 469.234 359.424 473.365 359.424 478.46V496.913H340.992V478.46C340.992 473.365 345.118 469.234 350.208 469.234Z" fill="#7364FF"/>
<path fill-rule="evenodd" clip-rule="evenodd" d="M607.104 518.825C612.194 518.825 616.32 522.956 616.32 528.051V546.504H597.888V528.051C597.888 522.956 602.014 518.825 607.104 518.825Z" fill="#7364FF"/>
<path fill-rule="evenodd" clip-rule="evenodd" d="M350.208 518.825C355.298 518.825 359.424 522.956 359.424 528.051V546.504H340.992V528.051C340.992 522.956 345.118 518.825 350.208 518.825Z" fill="#FFC30D"/>
<path fill-rule="evenodd" clip-rule="evenodd" d="M463.104 509.022H504V541.891H462.528V509.599C462.528 509.28 462.786 509.022 463.104 509.022Z" fill="#7364FF"/>
<path d="M483.264 489.417C488.672 489.417 493.056 485.028 493.056 479.614C493.056 474.2 488.672 469.811 483.264 469.811C477.856 469.811 473.472 474.2 473.472 479.614C473.472 485.028 477.856 489.417 483.264 489.417Z" fill="#7364FF"/>
<path d="M956.736 461.738H950.4V489.993H956.736V461.738Z" fill="#7364FF"/>
<path d="M1090.94 492.3H694.656V619.161H1090.94V492.3Z" fill="#CECCFF"/>
<path d="M1150.85 492.3H1090.94V619.161H1150.85V492.3Z" fill="#7364FF"/>
<path fill-rule="evenodd" clip-rule="evenodd" d="M1107.07 513.059C1112.16 513.059 1116.29 517.189 1116.29 522.285V540.738H1097.86V522.285C1097.86 517.189 1101.98 513.059 1107.07 513.059Z" fill="#5628D2"/>
<path fill-rule="evenodd" clip-rule="evenodd" d="M1134.72 513.059C1139.81 513.059 1143.94 517.189 1143.94 522.285V540.738H1125.5V522.285C1125.5 517.189 1129.63 513.059 1134.72 513.059Z" fill="#5628D2"/>
<path d="M1155.46 489.993H1095.55V494.606H1155.46V489.993Z" fill="#7364FF"/>
<path d="M1155.46 489.993H1090.94V494.606H1155.46V489.993Z" fill="#7364FF"/>
<path d="M1155.46 540.738H1095.55V545.351H1155.46V540.738Z" fill="#7364FF"/>
<path fill-rule="evenodd" clip-rule="evenodd" d="M731.52 563.227C744.245 563.227 754.56 573.553 754.56 586.292V619.161H708.48V586.292C708.48 573.553 718.795 563.227 731.52 563.227Z" fill="#7364FF"/>
<path fill-rule="evenodd" clip-rule="evenodd" d="M786.816 563.227C799.541 563.227 809.856 573.553 809.856 586.292V619.161H763.776V586.292C763.776 573.553 774.091 563.227 786.816 563.227Z" fill="#7364FF"/>
<path fill-rule="evenodd" clip-rule="evenodd" d="M717.696 513.059C722.786 513.059 726.912 517.189 726.912 522.285V540.738H708.48V522.285C708.48 517.189 712.606 513.059 717.696 513.059Z" fill="#FFC30D"/>
<path fill-rule="evenodd" clip-rule="evenodd" d="M772.992 513.059C778.082 513.059 782.208 517.189 782.208 522.285V540.738H763.776V522.285C763.776 517.189 767.902 513.059 772.992 513.059Z" fill="#7364FF"/>
<path fill-rule="evenodd" clip-rule="evenodd" d="M745.344 513.059C750.434 513.059 754.56 517.189 754.56 522.285V540.738H736.128V522.285C736.128 517.189 740.254 513.059 745.344 513.059Z" fill="#7364FF"/>
<path fill-rule="evenodd" clip-rule="evenodd" d="M800.64 513.059C805.73 513.059 809.856 517.189 809.856 522.285V540.738H791.424V522.285C791.424 517.189 795.55 513.059 800.64 513.059Z" fill="#7364FF"/>
<path d="M835.2 489.993H694.656V494.606H835.2V489.993Z" fill="#A39FFF"/>
<path d="M835.2 540.738H694.656V545.351H835.2V540.738Z" fill="#A39FFF"/>
<path fill-rule="evenodd" clip-rule="evenodd" d="M721.728 472.694C728.09 472.694 733.248 477.857 733.248 484.227V489.993H710.208V484.227C710.208 477.857 715.366 472.694 721.728 472.694Z" fill="#A39FFF"/>
<path fill-rule="evenodd" clip-rule="evenodd" d="M978.048 472.694C984.41 472.694 989.568 477.857 989.568 484.227V489.993H966.528V484.227C966.528 477.857 971.686 472.694 978.048 472.694Z" fill="#A39FFF"/>
<path fill-rule="evenodd" clip-rule="evenodd" d="M760.896 472.694C767.258 472.694 772.416 477.857 772.416 484.227V489.993H749.376V484.227C749.376 477.857 754.534 472.694 760.896 472.694Z" fill="#A39FFF"/>
<path fill-rule="evenodd" clip-rule="evenodd" d="M1017.22 472.694C1023.58 472.694 1028.74 477.857 1028.74 484.227V489.993H1005.7V484.227C1005.7 477.857 1010.85 472.694 1017.22 472.694Z" fill="#A39FFF"/>
<path fill-rule="evenodd" clip-rule="evenodd" d="M800.064 472.694C806.426 472.694 811.584 477.857 811.584 484.227V489.993H788.544V484.227C788.544 477.857 793.702 472.694 800.064 472.694Z" fill="#A39FFF"/>
<path fill-rule="evenodd" clip-rule="evenodd" d="M1056.38 472.694C1062.75 472.694 1067.9 477.857 1067.9 484.227V489.993H1044.86V484.227C1044.86 477.857 1050.02 472.694 1056.38 472.694Z" fill="#A39FFF"/>
<path fill-rule="evenodd" clip-rule="evenodd" d="M987.264 563.227C999.989 563.227 1010.3 573.553 1010.3 586.292V619.161H964.224V586.292C964.224 573.553 974.539 563.227 987.264 563.227Z" fill="#7364FF"/>
<path fill-rule="evenodd" clip-rule="evenodd" d="M1042.56 563.227C1055.28 563.227 1065.6 573.553 1065.6 586.292V619.161H1019.52V586.292C1019.52 573.553 1029.84 563.227 1042.56 563.227Z" fill="#7364FF"/>
<path fill-rule="evenodd" clip-rule="evenodd" d="M1120.9 563.227C1129.49 563.227 1136.45 570.197 1136.45 578.796V619.161H1105.34V578.796C1105.34 570.197 1112.31 563.227 1120.9 563.227Z" fill="#FFC30D"/>
<path fill-rule="evenodd" clip-rule="evenodd" d="M720 472.694C726.362 472.694 731.52 477.857 731.52 484.227V489.993H708.48V484.227C708.48 477.857 713.638 472.694 720 472.694Z" fill="#A39FFF"/>
<path d="M720 486.533C722.545 486.533 724.608 484.468 724.608 481.92C724.608 479.372 722.545 477.307 720 477.307C717.455 477.307 715.392 479.372 715.392 481.92C715.392 484.468 717.455 486.533 720 486.533Z" fill="#7364FF"/>
<path fill-rule="evenodd" clip-rule="evenodd" d="M976.32 472.694C982.682 472.694 987.84 477.857 987.84 484.227V489.993H964.8V484.227C964.8 477.857 969.958 472.694 976.32 472.694Z" fill="#A39FFF"/>
<path d="M976.32 486.533C978.865 486.533 980.928 484.468 980.928 481.92C980.928 479.372 978.865 477.307 976.32 477.307C973.775 477.307 971.712 479.372 971.712 481.92C971.712 484.468 973.775 486.533 976.32 486.533Z" fill="#7364FF"/>
<path fill-rule="evenodd" clip-rule="evenodd" d="M759.168 472.694C765.53 472.694 770.688 477.857 770.688 484.227V489.993H747.648V484.227C747.648 477.857 752.806 472.694 759.168 472.694Z" fill="#A39FFF"/>
<path d="M759.168 486.533C761.713 486.533 763.776 484.468 763.776 481.92C763.776 479.372 761.713 477.307 759.168 477.307C756.623 477.307 754.56 479.372 754.56 481.92C754.56 484.468 756.623 486.533 759.168 486.533Z" fill="#7364FF"/>
<path fill-rule="evenodd" clip-rule="evenodd" d="M865.152 422.973L914.112 410.993V477.307H865.152V422.973Z" fill="#CECCFF"/>
<path d="M925.056 410.993H914.112V477.307H925.056V410.993Z" fill="#7364FF"/>
<path fill-rule="evenodd" clip-rule="evenodd" d="M1015.49 472.694C1021.85 472.694 1027.01 477.857 1027.01 484.227V489.993H1003.97V484.227C1003.97 477.857 1009.13 472.694 1015.49 472.694Z" fill="#A39FFF"/>
<path d="M1015.49 486.533C1018.03 486.533 1020.1 484.468 1020.1 481.92C1020.1 479.372 1018.03 477.307 1015.49 477.307C1012.94 477.307 1010.88 479.372 1010.88 481.92C1010.88 484.468 1012.94 486.533 1015.49 486.533Z" fill="#7364FF"/>
<path fill-rule="evenodd" clip-rule="evenodd" d="M1102.46 472.694C1108.83 472.694 1113.98 477.857 1113.98 484.227V489.993H1090.94V484.227C1090.94 477.857 1096.1 472.694 1102.46 472.694Z" fill="#A39FFF"/>
<path fill-rule="evenodd" clip-rule="evenodd" d="M890.496 434.059C895.586 434.059 899.712 438.19 899.712 443.285V461.738H881.28V443.285C881.28 438.19 885.406 434.059 890.496 434.059Z" fill="#7364FF"/>
<path fill-rule="evenodd" clip-rule="evenodd" d="M798.336 472.694C804.698 472.694 809.856 477.857 809.856 484.227V489.993H786.816V484.227C786.816 477.857 791.974 472.694 798.336 472.694Z" fill="#A39FFF"/>
<path d="M798.336 486.533C800.881 486.533 802.944 484.468 802.944 481.92C802.944 479.372 800.881 477.307 798.336 477.307C795.791 477.307 793.728 479.372 793.728 481.92C793.728 484.468 795.791 486.533 798.336 486.533Z" fill="#7364FF"/>
<path fill-rule="evenodd" clip-rule="evenodd" d="M1054.66 472.694C1061.02 472.694 1066.18 477.857 1066.18 484.227V489.993H1043.14V484.227C1043.14 477.857 1048.29 472.694 1054.66 472.694Z" fill="#A39FFF"/>
<path d="M1054.66 486.533C1057.2 486.533 1059.26 484.468 1059.26 481.92C1059.26 479.372 1057.2 477.307 1054.66 477.307C1052.11 477.307 1050.05 479.372 1050.05 481.92C1050.05 484.468 1052.11 486.533 1054.66 486.533Z" fill="#7364FF"/>
<path fill-rule="evenodd" clip-rule="evenodd" d="M1137.6 472.694C1143.96 472.694 1149.12 477.857 1149.12 484.227V489.993H1126.08V484.227C1126.08 477.857 1131.24 472.694 1137.6 472.694Z" fill="#A39FFF"/>
<path fill-rule="evenodd" clip-rule="evenodd" d="M973.44 513.059C978.53 513.059 982.656 517.189 982.656 522.285V540.738H964.224V522.285C964.224 517.189 968.35 513.059 973.44 513.059Z" fill="#7364FF"/>
<path fill-rule="evenodd" clip-rule="evenodd" d="M1028.74 513.059C1033.83 513.059 1037.95 517.189 1037.95 522.285V540.738H1019.52V522.285C1019.52 517.189 1023.65 513.059 1028.74 513.059Z" fill="#7364FF"/>
<path fill-rule="evenodd" clip-rule="evenodd" d="M1001.09 513.059C1006.18 513.059 1010.3 517.189 1010.3 522.285V540.738H991.872V522.285C991.872 517.189 995.998 513.059 1001.09 513.059Z" fill="#7364FF"/>
<path fill-rule="evenodd" clip-rule="evenodd" d="M1056.38 513.059C1061.47 513.059 1065.6 517.189 1065.6 522.285V540.738H1047.17V522.285C1047.17 517.189 1051.29 513.059 1056.38 513.059Z" fill="#7364FF"/>
<path d="M1090.94 489.993H950.4V494.606H1090.94V489.993Z" fill="#A39FFF"/>
<path d="M945.792 461.738H835.2V619.737H945.792V461.738Z" fill="#E8E7FF"/>
<path d="M945.792 477.307H835.2V480.767H945.792V477.307Z" fill="#A39FFF"/>
<path d="M1090.94 540.738H950.4V545.351H1090.94V540.738Z" fill="#A39FFF"/>
<path d="M950.4 480.767H936.576V619.161H950.4V480.767Z" fill="#A39FFF"/>
<path d="M950.4 461.738H945.792V619.161H950.4V461.738Z" fill="#7364FF"/>
<path d="M950.4 536.124H941.184V549.964H950.4V536.124Z" fill="#7364FF"/>
<path fill-rule="evenodd" clip-rule="evenodd" d="M892.8 563.803C904.252 563.803 913.536 573.097 913.536 584.562V619.161H872.064V584.562C872.064 573.097 881.348 563.803 892.8 563.803Z" fill="#7364FF"/>
<path d="M849.024 480.767H835.2V619.161H849.024V480.767Z" fill="#A39FFF"/>
<path d="M739.584 530.935H723.456V541.314H739.584V530.935Z" fill="#A39FFF"/>
<path d="M995.328 530.935H979.2V541.314H995.328V530.935Z" fill="#A39FFF"/>
<path d="M711.936 530.935H694.656V541.314H711.936V530.935Z" fill="#A39FFF"/>
<path d="M967.68 530.935H950.4V541.314H967.68V530.935Z" fill="#A39FFF"/>
<path d="M823.68 530.935H806.4V541.314H823.68V530.935Z" fill="#A39FFF"/>
<path d="M1079.42 530.935H1062.14V541.314H1079.42V530.935Z" fill="#A39FFF"/>
<path d="M767.232 530.935H751.104V541.314H767.232V530.935Z" fill="#A39FFF"/>
<path d="M1022.98 530.935H1006.85V541.314H1022.98V530.935Z" fill="#A39FFF"/>
<path d="M794.88 530.935H778.752V541.314H794.88V530.935Z" fill="#A39FFF"/>
<path d="M1050.62 530.935H1034.5V541.314H1050.62V530.935Z" fill="#A39FFF"/>
<path d="M849.024 480.767H844.416V619.161H849.024V480.767Z" fill="#7364FF"/>
<path fill-rule="evenodd" clip-rule="evenodd" d="M867.456 494.606C872.546 494.606 876.672 498.737 876.672 503.833V540.738H858.24V503.833C858.24 498.737 862.366 494.606 867.456 494.606Z" fill="#7364FF"/>
<path fill-rule="evenodd" clip-rule="evenodd" d="M892.8 494.606C897.89 494.606 902.016 498.737 902.016 503.833V540.738H883.584V503.833C883.584 498.737 887.71 494.606 892.8 494.606Z" fill="#7364FF"/>
<path fill-rule="evenodd" clip-rule="evenodd" d="M918.144 494.606C923.234 494.606 927.36 498.737 927.36 503.833V540.738H908.928V503.833C908.928 498.737 913.054 494.606 918.144 494.606Z" fill="#7364FF"/>
<path d="M941.184 536.124H830.592V549.964H941.184V536.124Z" fill="#CECCFF"/>
<path d="M1146.82 547.657H1143.36V618.007H1146.82V547.657Z" fill="#02A837"/>
<path fill-rule="evenodd" clip-rule="evenodd" d="M1144.51 546.504L1179.65 605.321H1109.38L1144.51 546.504Z" fill="#0CC647"/>
<path fill-rule="evenodd" clip-rule="evenodd" d="M1145.09 531.511L1173.89 579.949H1116.29L1145.09 531.511Z" fill="#0CC647"/>
<path fill-rule="evenodd" clip-rule="evenodd" d="M1144.51 520.555L1164.67 555.154H1124.35L1144.51 520.555Z" fill="#0CC647"/>
<path d="M1268.25 569.443H1159.35V619.161H1268.25V569.443Z" fill="#A39FFF"/>
<path d="M1320.19 565.533H1268.25V569.443H1320.19V565.533Z" fill="#A39FFF"/>
<path d="M1317.4 569.443H1268.25V619.161H1317.4V569.443Z" fill="#7364FF"/>
<path d="M1188.39 572.795H1162.7V619.161H1188.39V572.795Z" fill="#FFE38E"/>
<path d="M1264.9 572.795H1239.21V619.161H1264.9V572.795Z" fill="#FFE38E"/>
<path d="M1268.25 595.699H1159.35V599.609H1268.25V595.699Z" fill="#A39FFF"/>
<path d="M1268.25 615.25H1159.35V619.161H1268.25V615.25Z" fill="#A39FFF"/>
<path d="M1233.63 569.443H1190.62V619.161H1233.63V569.443Z" fill="#E8E7FF"/>
<path d="M1236.98 569.443H1233.63V619.161H1236.98V569.443Z" fill="#CECCFF"/>
<path d="M1272.72 565.533H1154.88V569.443H1272.72V565.533Z" fill="#CECCFF"/>
<path fill-rule="evenodd" clip-rule="evenodd" d="M1199 572.795H1224.69V605.132V619.161H1199V572.795Z" fill="#7364FF"/>
<path d="M1307.35 572.795H1281.66V614.692H1307.35V572.795Z" fill="#5628D2"/>
<path d="M1317.4 595.699H1268.25V599.609H1317.4V595.699Z" fill="#7364FF"/>
<path fill-rule="evenodd" clip-rule="evenodd" d="M1332.86 604.168C1348.13 604.168 1360.51 599.02 1360.51 581.186C1360.51 563.351 1348.13 539.584 1332.86 539.584C1317.59 539.584 1305.22 563.351 1305.22 581.186C1305.22 599.02 1317.59 604.168 1332.86 604.168Z" fill="#00D745"/>
<path d="M1334.59 562.65H1332.29V618.008H1334.59V562.65Z" fill="#02A837"/>
<path d="M1381.54 616.277C1385.83 616.277 1389.31 612.792 1389.31 608.493C1389.31 604.194 1385.83 600.708 1381.54 600.708C1377.24 600.708 1373.76 604.194 1373.76 608.493C1373.76 612.792 1377.24 616.277 1381.54 616.277Z" fill="#02A837"/>
<path fill-rule="evenodd" clip-rule="evenodd" d="M1370.88 596.672C1377.24 596.672 1382.4 601.835 1382.4 608.205C1382.4 608.594 1382.38 608.979 1382.34 609.359L1382.4 609.358C1386.22 609.358 1389.31 612.456 1389.31 616.278C1389.31 616.875 1389.24 617.455 1389.09 618.008L1353.37 618.008C1352.78 616.788 1352.45 615.419 1352.45 613.971C1352.45 609.503 1355.62 605.778 1359.83 604.927C1361.24 600.154 1365.65 596.672 1370.88 596.672Z" fill="#00D745"/>
<path fill-rule="evenodd" clip-rule="evenodd" d="M1247.89 570.146H1387.86C1391.04 570.146 1393.62 572.728 1393.62 575.913V635.307C1393.62 636.262 1392.84 637.037 1391.89 637.037H1243.86C1242.9 637.037 1242.13 636.262 1242.13 635.307V575.913C1242.13 572.728 1244.71 570.146 1247.89 570.146Z" fill="#CECCFF"/>
<path fill-rule="evenodd" clip-rule="evenodd" d="M1283.02 615.124H1294.54C1300.59 615.124 1305.49 620.03 1305.49 626.08V635.307C1305.49 636.262 1304.71 637.037 1303.76 637.037H1273.81C1272.85 637.037 1272.08 636.262 1272.08 635.307V626.08C1272.08 620.03 1276.98 615.124 1283.02 615.124Z" fill="#A39FFF"/>
<path fill-rule="evenodd" clip-rule="evenodd" d="M1285.33 622.621H1292.24C1297.01 622.621 1300.88 626.493 1300.88 631.27V637.037H1276.69V631.27C1276.69 626.493 1280.56 622.621 1285.33 622.621Z" fill="#370EA3"/>
<path d="M1289.07 647.416C1294.96 647.416 1299.73 642.64 1299.73 636.748C1299.73 630.857 1294.96 626.08 1289.07 626.08C1283.19 626.08 1278.42 630.857 1278.42 636.748C1278.42 642.64 1283.19 647.416 1289.07 647.416Z" fill="#5628D2"/>
<path fill-rule="evenodd" clip-rule="evenodd" d="M1389.01 597.681L1417.51 612.345C1419.82 613.53 1421.26 615.906 1421.26 618.499V637.037H1389.01V597.681Z" fill="#CECCFF"/>
<path fill-rule="evenodd" clip-rule="evenodd" d="M1393.62 615.124H1410.32C1416.36 615.124 1421.26 620.03 1421.26 626.08V635.307C1421.26 636.262 1420.49 637.037 1419.54 637.037H1389.58C1388.63 637.037 1387.86 636.262 1387.86 635.307V620.891C1387.86 617.706 1390.43 615.124 1393.62 615.124Z" fill="#A39FFF"/>
<path fill-rule="evenodd" clip-rule="evenodd" d="M1401.1 622.621H1408.02C1412.79 622.621 1416.66 626.493 1416.66 631.27V637.037H1392.46V631.27C1392.46 626.493 1396.33 622.621 1401.1 622.621Z" fill="#370EA3"/>
<path d="M1289.07 642.226C1292.09 642.226 1294.54 639.774 1294.54 636.748C1294.54 633.723 1292.09 631.27 1289.07 631.27C1286.05 631.27 1283.6 633.723 1283.6 636.748C1283.6 639.774 1286.05 642.226 1289.07 642.226Z" fill="#E8E7FF"/>
<path d="M1404.85 647.416C1410.73 647.416 1415.5 642.64 1415.5 636.748C1415.5 630.857 1410.73 626.08 1404.85 626.08C1398.96 626.08 1394.19 630.857 1394.19 636.748C1394.19 642.64 1398.96 647.416 1404.85 647.416Z" fill="#5628D2"/>
<path d="M1404.85 642.226C1407.87 642.226 1410.32 639.774 1410.32 636.748C1410.32 633.723 1407.87 631.27 1404.85 631.27C1401.83 631.27 1399.38 633.723 1399.38 636.748C1399.38 639.774 1401.83 642.226 1404.85 642.226Z" fill="#E8E7FF"/>
<path d="M1384.98 582.832H1364.82V633.577H1384.98V582.832Z" fill="#5628D2"/>
<path d="M1359.63 582.832H1340.62V597.825H1359.63V582.832Z" fill="#5628D2"/>
<path d="M1393.62 582.832H1389.01V600.132H1393.62V582.832Z" fill="#5628D2"/>
<path d="M1338.9 582.832H1319.89V597.825H1338.9V582.832Z" fill="#5628D2"/>
<path d="M1318.16 582.832H1299.15V597.825H1318.16V582.832Z" fill="#5628D2"/>
<path d="M1297.42 582.832H1278.42V597.825H1297.42V582.832Z" fill="#5628D2"/>
<path d="M1276.69 582.832H1257.68V597.825H1276.69V582.832Z" fill="#5628D2"/>
<path d="M1255.95 582.832H1242.13V597.825H1255.95V582.832Z" fill="#5628D2"/>
<path d="M1364.82 606.475H1242.13V611.664H1364.82V606.475Z" fill="#5628D2"/>
<path fill-rule="evenodd" clip-rule="evenodd" d="M628.992 617.431H733.248L761.835 620.116C765.939 620.501 769.2 623.736 769.622 627.841L770.426 635.647C770.557 636.914 769.636 638.047 768.371 638.178C768.292 638.186 768.213 638.19 768.134 638.19H631.401C630.134 638.19 629.105 637.165 629.097 635.896L628.992 617.431Z" fill="#7364FF"/>
<path fill-rule="evenodd" clip-rule="evenodd" d="M634.205 601.285H719.475C719.82 601.285 720.147 601.44 720.365 601.707L733.248 617.431H628.992L631.949 603.124C632.17 602.053 633.113 601.285 634.205 601.285Z" fill="#A39FFF"/>
<path fill-rule="evenodd" clip-rule="evenodd" d="M718.676 603.591C719.005 603.591 719.313 603.677 719.559 603.823C719.724 603.921 723.518 608.457 730.944 617.431H703.296V603.591H718.676ZM700.416 617.431H678.56C678.389 617.431 678.218 617.405 678.054 617.355C677.142 617.076 676.628 616.108 676.908 615.195L680.2 604.422C680.283 604.177 680.467 603.97 680.713 603.823C680.96 603.677 681.268 603.591 681.596 603.591H700.416V617.431Z" fill="#5628D2"/>
<path fill-rule="evenodd" clip-rule="evenodd" d="M633.606 617.431C633.334 617.431 633.078 617.345 632.874 617.199C632.669 617.052 632.516 616.845 632.448 616.6L634.809 604.977C634.973 604.171 635.681 603.591 636.502 603.591H676.598C676.916 603.591 677.174 603.85 677.174 604.168C677.174 604.225 677.165 604.282 677.149 604.337L673.405 616.6C673.337 616.845 673.184 617.052 672.98 617.199C672.775 617.345 672.52 617.431 672.247 617.431H633.606Z" fill="#5628D2"/>
<path d="M660.672 647.416C665.762 647.416 669.888 643.285 669.888 638.19C669.888 633.094 665.762 628.964 660.672 628.964C655.582 628.964 651.456 633.094 651.456 638.19C651.456 643.285 655.582 647.416 660.672 647.416Z" fill="#370EA3"/>
<path d="M660.672 642.803C663.217 642.803 665.28 640.738 665.28 638.19C665.28 635.642 663.217 633.577 660.672 633.577C658.127 633.577 656.064 635.642 656.064 638.19C656.064 640.738 658.127 642.803 660.672 642.803Z" fill="#E8E7FF"/>
<path d="M743.04 647.416C748.13 647.416 752.256 643.285 752.256 638.19C752.256 633.094 748.13 628.964 743.04 628.964C737.95 628.964 733.824 633.094 733.824 638.19C733.824 643.285 737.95 647.416 743.04 647.416Z" fill="#370EA3"/>
<path d="M743.04 642.803C745.585 642.803 747.648 640.738 747.648 638.19C747.648 635.642 745.585 633.577 743.04 633.577C740.495 633.577 738.432 635.642 738.432 638.19C738.432 640.738 740.495 642.803 743.04 642.803Z" fill="#E8E7FF"/>
<path fill-rule="evenodd" clip-rule="evenodd" d="M52.7081 634.153H168.768C171.313 634.153 173.376 632.088 173.376 629.54V622.044C173.376 615.356 167.96 609.935 161.28 609.935H49.3244C48.052 609.935 47.0204 610.967 47.0204 612.241C47.0204 612.354 47.0287 612.466 47.0451 612.577L49.8588 631.691C50.0671 633.105 51.2797 634.153 52.7081 634.153Z" fill="#7364FF"/>
<path fill-rule="evenodd" clip-rule="evenodd" d="M104.165 609.934H121.822H138.907L135.325 595.404C135.007 594.117 133.853 593.212 132.528 593.212H108.082C106.574 593.212 105.321 594.376 105.21 595.881L104.165 609.934Z" fill="#5628D2"/>
<path fill-rule="evenodd" clip-rule="evenodd" d="M63.0743 616.854H81.216C87.2602 616.854 92.16 621.759 92.16 627.81V635.883C92.16 637.476 90.8706 638.767 89.28 638.767H54.9115C53.9571 638.767 53.1835 637.992 53.1835 637.037C53.1835 636.976 53.1866 636.916 53.193 636.856L54.4818 624.598C54.9446 620.196 58.6527 616.854 63.0743 616.854Z" fill="#A39FFF"/>
<path fill-rule="evenodd" clip-rule="evenodd" d="M143.832 616.854H165.312C171.356 616.854 176.256 621.759 176.256 627.81V637.037C176.256 637.992 175.482 638.767 174.528 638.767H135.874C134.919 638.767 134.146 637.992 134.146 637.037C134.146 636.888 134.165 636.74 134.202 636.596L138.262 621.153C138.928 618.62 141.216 616.854 143.832 616.854Z" fill="#A39FFF"/>
<path fill-rule="evenodd" clip-rule="evenodd" d="M68.7211 624.35H76.6079C81.3797 624.35 85.2479 628.223 85.2479 633V638.766H59.3279L60.1427 631.97C60.6638 627.622 64.3476 624.35 68.7211 624.35Z" fill="#370EA3"/>
<path fill-rule="evenodd" clip-rule="evenodd" d="M154.944 624.35H161.856C166.628 624.35 170.496 628.223 170.496 633V638.766H146.304V633C146.304 628.223 150.172 624.35 154.944 624.35Z" fill="#370EA3"/>
<path fill-rule="evenodd" clip-rule="evenodd" d="M138.907 609.934L135.633 596.672H130.43L130.752 609.138C130.816 609.373 130.96 609.572 131.153 609.712C131.345 609.853 131.586 609.934 131.843 609.934H138.907Z" fill="#A39FFF"/>
<path d="M72.576 647.416C77.6658 647.416 81.792 643.285 81.792 638.19C81.792 633.094 77.6658 628.964 72.576 628.964C67.4861 628.964 63.36 633.094 63.36 638.19C63.36 643.285 67.4861 647.416 72.576 647.416Z" fill="#5628D2"/>
<path d="M72.576 642.803C75.1209 642.803 77.184 640.738 77.184 638.19C77.184 635.642 75.1209 633.577 72.576 633.577C70.031 633.577 67.968 635.642 67.968 638.19C67.968 640.738 70.031 642.803 72.576 642.803Z" fill="#E8E7FF"/>
<path d="M158.976 647.416C164.066 647.416 168.192 643.285 168.192 638.19C168.192 633.094 164.066 628.964 158.976 628.964C153.886 628.964 149.76 633.094 149.76 638.19C149.76 643.285 153.886 647.416 158.976 647.416Z" fill="#5628D2"/>
<path d="M158.976 642.803C161.521 642.803 163.584 640.738 163.584 638.19C163.584 635.642 161.521 633.577 158.976 633.577C156.431 633.577 154.368 635.642 154.368 638.19C154.368 640.738 156.431 642.803 158.976 642.803Z" fill="#E8E7FF"/>
<path fill-rule="evenodd" clip-rule="evenodd" d="M109.92 596.672H127.872C128.508 596.672 129.024 597.188 129.024 597.825V608.781C129.024 609.418 128.508 609.935 127.872 609.935H108.969C108.332 609.935 107.817 609.418 107.817 608.781C107.817 608.748 107.818 608.715 107.821 608.681L108.773 597.725C108.824 597.129 109.323 596.672 109.92 596.672Z" fill="#A39FFF"/>
</g>
<defs>
<clipPath id="clip0">
<rect width="1440" height="664" fill="white"/>
</clipPath>
</defs>
</svg>
